{
  "accessors": [
    {
      "bufferView": 2,
      "componentType": 5126,
      "count": 358,
      "max": [
        1.2591675519943237,
        0.9576931595802307,
        0.33038949966430664
      ],
      "min": [
        0.6491227746009827,
        0.4953915476799011,
        0.2143160104751587
      ],
      "type": "VEC3"
    },
    {
      "bufferView": 2,
      "byteOffset": 4296,
      "componentType": 5126,
      "count": 358,
      "max": [
        0.9100973606109619,
        0.7802560329437256,
        0.9614406824111938
      ],
      "min": [
        -0.9092501997947693,
        -0.8179417848587036,
        -0.9993844032287598
      ],
      "type": "VEC3"
    },
    {
      "bufferView": 3,
      "componentType": 5126,
      "count": 358,
      "max": [
        0.8597418069839478,
        0.8577293753623962,
        0.945469319820404,
        1.0
      ],
      "min": [
        -0.9221924543380737,
        -0.9550725221633911,
        -0.9968758821487427,
        -1.0
      ],
      "type": "VEC4"
    },
    {
      "bufferView": 1,
      "componentType": 5126,
      "count": 358,
      "max": [
        0.9548226594924927,
        0.6881798505783081
      ],
      "min": [
        0.6619402170181274,
        0.03206831216812134
      ],
      "type": "VEC2"
    },
    {
      "bufferView": 1,
      "byteOffset": 2864,
      "componentType": 5126,
      "count": 358,
      "max": [
        0.9548226594924927,
        0.6881798505783081
      ],
      "min": [
        0.6619402170181274,
        0.03206831216812134
      ],
      "type": "VEC2"
    },
    {
      "bufferView": 0,
      "componentType": 5125,
      "count": 1788,
      "type": "SCALAR"
    },
    {
      "bufferView": 2,
      "byteOffset": 8592,
      "componentType": 5126,
      "count": 1894,
      "max": [
        0.9881260991096497,
        1.0135481357574463,
        1.244978427886963
      ],
      "min": [
        -1.003105878829956,
        -1.040223479270935,
        -0.991173505783081
      ],
      "type": "VEC3"
    },
    {
      "bufferView": 2,
      "byteOffset": 31320,
      "componentType": 5126,
      "count": 1894,
      "max": [
        0.9996071457862854,
        0.9993737936019897,
        0.9999008178710938
      ],
      "min": [
        -0.9987149238586426,
        -0.9993160367012024,
        -0.9992077350616455
      ],
      "type": "VEC3"
    },
    {
      "bufferView": 3,
      "byteOffset": 5728,
      "componentType": 5126,
      "count": 1894,
      "max": [
        0.9999900460243225,
        0.9784684777259827,
        0.9998765587806702,
        1.0
      ],
      "min": [
        -0.9415298104286194,
        -0.9308462738990784,
        -0.9999837875366211,
        1.0
      ],
      "type": "VEC4"
    },
    {
      "bufferView": 1,
      "byteOffset": 5728,
      "componentType": 5126,
      "count": 1894,
      "max": [
        0.8485292196273804,
        1.0
      ],
      "min": [
        0.031026354059576988,
        0.0
      ],
      "type": "VEC2"
    },
    {
      "bufferView": 1,
      "byteOffset": 20880,
      "componentType": 5126,
      "count": 1894,
      "max": [
        0.8485292196273804,
        1.0
      ],
      "min": [
        0.031026354059576988,
        0.0
      ],
      "type": "VEC2"
    },
    {
      "bufferView": 0,
      "byteOffset": 7152,
      "componentType": 5125,
      "count": 10614,
      "type": "SCALAR"
    },
    {
      "bufferView": 2,
      "byteOffset": 54048,
      "componentType": 5126,
      "count": 520,
      "max": [
        0.6155693531036377,
        0.38621535897254944,
        0.9321889877319336
      ],
      "min": [
        -0.6180403828620911,
        -0.03925367444753647,
        0.5081656575202942
      ],
      "type": "VEC3"
    },
    {
      "bufferView": 2,
      "byteOffset": 60288,
      "componentType": 5126,
      "count": 520,
      "max": [
        0.9949206709861755,
        0.9957396984100342,
        0.9979008436203003
      ],
      "min": [
        -0.9973612427711487,
        -0.9999531507492065,
        -0.9914655089378357
      ],
      "type": "VEC3"
    },
    {
      "bufferView": 3,
      "byteOffset": 36032,
      "componentType": 5126,
      "count": 520,
      "max": [
        0.9985890984535217,
        0.9213024973869324,
        0.9966098070144653,
        1.0
      ],
      "min": [
        -0.9058172106742859,
        -0.9883547425270081,
        -0.9960116147994995,
        1.0
      ],
      "type": "VEC4"
    },
    {
      "bufferView": 1,
      "byteOffset": 36032,
      "componentType": 5126,
      "count": 520,
      "max": [
        0.8381504416465759,
        0.9550681114196777
      ],
      "min": [
        0.0900704562664032,
        0.6584188938140869
      ],
      "type": "VEC2"
    },
    {
      "bufferView": 1,
      "byteOffset": 40192,
      "componentType": 5126,
      "count": 520,
      "max": [
        0.8381504416465759,
        0.9550681114196777
      ],
      "min": [
        0.0900704562664032,
        0.6584188938140869
      ],
      "type": "VEC2"
    },
    {
      "bufferView": 0,
      "byteOffset": 49608,
      "componentType": 5125,
      "count": 2808,
      "type": "SCALAR"
    }
  ],
  "asset": {
    "extras": {
      "author": "Chris (https://sketchfab.com/christianrehm)",
      "license": "CC-BY-4.0 (http://creativecommons.org/licenses/by/4.0/)",
      "source": "https://sketchfab.com/3d-models/me-gusta-moon-8d10f06fb94049b8831dcb83b725a93f",
      "title": "Me Gusta Moon"
    },
    "generator": "Sketchfab-12.66.0",
    "version": "2.0"
  },
  "bufferViews": [
    {
      "buffer": 0,
      "byteLength": 60840,
      "name": "floatBufferViews",
      "target": 34963
    },
    {
      "buffer": 0,
      "byteLength": 44352,
      "byteOffset": 60840,
      "byteStride": 8,
      "name": "floatBufferViews",
      "target": 34962
    },
    {
      "buffer": 0,
      "byteLength": 66528,
      "byteOffset": 105192,
      "byteStride": 12,
      "name": "floatBufferViews",
      "target": 34962
    },
    {
      "buffer": 0,
      "byteLength": 44352,
      "byteOffset": 171720,
      "byteStride": 16,
      "name": "floatBufferViews",
      "target": 34962
    }
  ],
  "buffers": [
    {
      "byteLength": 216072,
      "uri": "scene.bin"
    }
  ],
  "images": [
    {
      "uri": "textures/Moon2_MAT_baseColor.png"
    },
    {
      "uri": "textures/Moon2_MAT_normal.png"
    }
  ],
  "materials": [
    {
      "doubleSided": true,
      "name": "Moon2_MAT",
      "normalTexture": {
        "index": 1
      },
      "pbrMetallicRoughness": {
        "baseColorFactor": [
          0.8,
          0.8,
          0.8,
          1.0
        ],
        "baseColorTexture": {
          "index": 0
        },
        "metallicFactor": 0.0,
        "roughnessFactor": 0.6
      }
    }
  ],
  "meshes": [
    {
      "name": "Flag_Moon2_MAT_0",
      "primitives": [
        {
          "attributes": {
            "NORMAL": 1,
            "POSITION": 0,
            "TANGENT": 2,
            "TEXCOORD_0": 3,
            "TEXCOORD_1": 4
          },
          "indices": 5,
          "material": 0,
          "mode": 4
        }
      ]
    },
    {
      "name": "Moon_LOW_Moon2_MAT_0",
      "primitives": [
        {
          "attributes": {
            "NORMAL": 7,
            "POSITION": 6,
            "TANGENT": 8,
            "TEXCOORD_0": 9,
            "TEXCOORD_1": 10
          },
          "indices": 11,
          "material": 0,
          "mode": 4
        }
      ]
    },
    {
      "name": "Eyes_LOW_Moon2_MAT_0",
      "primitives": [
        {
          "attributes": {
            "NORMAL": 13,
            "POSITION": 12,
            "TANGENT": 14,
            "TEXCOORD_0": 15,
            "TEXCOORD_1": 16
          },
          "indices": 17,
          "material": 0,
          "mode": 4
        }
      ]
    }
  ],
  "nodes": [
    {
      "children": [
        1
      ],
      "matrix": [
        1.4258527755737305,
        0.0,
        0.0,
        0.0,
        0.0,
        3.166029162335283e-16,
        -1.4258527755737305,
        0.0,
        0.0,
        1.4258527755737305,
        3.166029162335283e-16,
        0.0,
        0.0,
        0.0,
        0.0,
        1.0
      ],
      "name": "Sketchfab_model"
    },
    {
      "children": [
        2
      ],
      "matrix": [
        1.0,
        0.0,
        0.0,
        0.0,
        0.0,
        0.0,
        1.0,
        0.0,
        0.0,
        -1.0,
        0.0,
        0.0,
        0.0,
        0.0,
        0.0,
        1.0
      ],
      "name": "730f9c0633774fdaac9fce10e4dc3c99.fbx"
    },
    {
      "children": [
        3
      ],
      "name": "RootNode"
    },
    {
      "children": [
        4,
        6,
        8
      ],
      "name": "Moon_LOW"
    },
    {
      "children": [
        5
      ],
      "name": "Flag"
    },
    {
      "mesh": 0,
      "name": "Flag_Moon2_MAT_0"
    },
    {
      "children": [
        7
      ],
      "name": "Moon_LOW"
    },
    {
      "mesh": 1,
      "name": "Moon_LOW_Moon2_MAT_0"
    },
    {
      "children": [
        9
      ],
      "matrix": [
        1.0250084400177002,
        0.0,
        0.0,
        0.0,
        0.0,
        1.0250084400177002,
        0.0,
        0.0,
        0.0,
        0.0,
        1.0250084400177002,
        0.0,
        0.0,
        0.0,
        0.0,
        1.0
      ],
      "name": "Eyes_LOW"
    },
    {
      "mesh": 2,
      "name": "Eyes_LOW_Moon2_MAT_0"
    }
  ],
  "samplers": [
    {
      "magFilter": 9729,
      "minFilter": 9987,
      "wrapS": 10497,
      "wrapT": 10497
    }
  ],
  "scene": 0,
  "scenes": [
    {
      "name": "Sketchfab_Scene",
      "nodes": [
        0
      ]
    }
  ],
  "textures": [
    {
      "sampler": 0,
      "source": 0
    },
    {
      "sampler": 0,
      "source": 1
    }
  ]
}
