{
  "accessors": [
    {
      "bufferView": 2,
      "componentType": 5126,
      "count": 830,
      "max": [
        9.62472152709961,
        20.648269653320313,
        27.87291145324707
      ],
      "min": [
        -9.62472152709961,
        -12.648391723632813,
        -11.876317977905273
      ],
      "type": "VEC3"
    },
    {
      "bufferView": 2,
      "byteOffset": 9960,
      "componentType": 5126,
      "count": 830,
      "max": [
        0.9962356090545654,
        0.9999995827674866,
        0.9996646642684937
      ],
      "min": [
        -0.9962355494499207,
        -0.9981177449226379,
        -0.9998380541801453
      ],
      "type": "VEC3"
    },
    {
      "bufferView": 3,
      "componentType": 5126,
      "count": 830,
      "max": [
        0.9967800974845886,
        0.7172120213508606,
        0.9951395988464355,
        1.0
      ],
      "min": [
        -0.9999907612800598,
        -0.9997918605804443,
        -0.9960017800331116,
        1.0
      ],
      "type": "VEC4"
    },
    {
      "bufferView": 1,
      "componentType": 5126,
      "count": 830,
      "max": [
        0.9662694334983826,
        0.9868607521057129
      ],
      "min": [
        0.02766140177845955,
        0.021759629249572754
      ],
      "type": "VEC2"
    },
    {
      "bufferView": 1,
      "byteOffset": 6640,
      "componentType": 5126,
      "count": 830,
      "max": [
        0.9662694334983826,
        0.9868607521057129
      ],
      "min": [
        0.02766140177845955,
        0.021759629249572754
      ],
      "type": "VEC2"
    },
    {
      "bufferView": 0,
      "componentType": 5125,
      "count": 4404,
      "type": "SCALAR"
    }
  ],
  "asset": {
    "extras": {
      "author": "DJMaesen (https://sketchfab.com/bumstrum)",
      "license": "CC-BY-4.0 (http://creativecommons.org/licenses/by/4.0/)",
      "source": "https://sketchfab.com/3d-models/plague-mask-36b6373dcf334e7693f00655095ac1cb",
      "title": "Plague Mask"
    },
    "generator": "Sketchfab-12.66.0",
    "version": "2.0"
  },
  "bufferViews": [
    {
      "buffer": 0,
      "byteLength": 17616,
      "name": "floatBufferViews",
      "target": 34963
    },
    {
      "buffer": 0,
      "byteLength": 13280,
      "byteOffset": 17616,
      "byteStride": 8,
      "name": "floatBufferViews",
      "target": 34962
    },
    {
      "buffer": 0,
      "byteLength": 19920,
      "byteOffset": 30896,
      "byteStride": 12,
      "name": "floatBufferViews",
      "target": 34962
    },
    {
      "buffer": 0,
      "byteLength": 13280,
      "byteOffset": 50816,
      "byteStride": 16,
      "name": "floatBufferViews",
      "target": 34962
    }
  ],
  "buffers": [
    {
      "byteLength": 64096,
      "uri": "scene.bin"
    }
  ],
  "images": [
    {
      "uri": "textures/plaguemask_baseColor.png"
    },
    {
      "uri": "textures/plaguemask_metallicRoughness.png"
    },
    {
      "uri": "textures/plaguemask_normal.png"
    }
  ],
  "materials": [
    {
      "name": "plaguemask",
      "normalTexture": {
        "index": 2
      },
      "occlusionTexture": {
        "index": 1
      },
      "pbrMetallicRoughness": {
        "baseColorTexture": {
          "index": 0
        },
        "metallicRoughnessTexture": {
          "index": 1
        }
      }
    }
  ],
  "meshes": [
    {
      "name": "plaguemask_plaguemask_0",
      "primitives": [
        {
          "attributes": {
            "NORMAL": 1,
            "POSITION": 0,
            "TANGENT": 2,
            "TEXCOORD_0": 3,
            "TEXCOORD_1": 4
          },
          "indices": 5,
          "material": 0,
          "mode": 4
        }
      ]
    }
  ],
  "nodes": [
    {
      "children": [
        1
      ],
      "matrix": [
        1.0,
        0.0,
        0.0,
        0.0,
        0.0,
        2.220446049250313e-16,
        -1.0,
        0.0,
        0.0,
        1.0,
        2.220446049250313e-16,
        0.0,
        0.0,
        0.0,
        0.0,
        1.0
      ],
      "name": "Sketchfab_model"
    },
    {
      "children": [
        2
      ],
      "matrix": [
        0.009999999776482582,
        0.0,
        0.0,
        0.0,
        0.0,
        0.0,
        0.009999999776482582,
        0.0,
        0.0,
        -0.009999999776482582,
        0.0,
        0.0,
        0.0,
        0.0,
        0.0,
        1.0
      ],
      "name": "858d649fcb2d442a8c6a6c59d56e93de.fbx"
    },
    {
      "children": [
        3
      ],
      "name": "RootNode"
    },
    {
      "children": [
        4
      ],
      "matrix": [
        1.0,
        0.0,
        0.0,
        0.0,
        0.0,
        1.0,
        0.0,
        0.0,
        0.0,
        0.0,
        1.0,
        0.0,
        0.0,
        162.26881408691406,
        6.151002883911133,
        1.0
      ],
      "name": "plaguemask"
    },
    {
      "mesh": 0,
      "name": "plaguemask_plaguemask_0"
    }
  ],
  "samplers": [
    {
      "magFilter": 9729,
      "minFilter": 9987,
      "wrapS": 10497,
      "wrapT": 10497
    }
  ],
  "scene": 0,
  "scenes": [
    {
      "name": "Sketchfab_Scene",
      "nodes": [
        0
      ]
    }
  ],
  "textures": [
    {
      "sampler": 0,
      "source": 0
    },
    {
      "sampler": 0,
      "source": 1
    },
    {
      "sampler": 0,
      "source": 2
    }
  ]
}
