{
  "accessors": [
    {
      "bufferView": 1,
      "componentType": 5126,
      "count": 31869,
      "max": [
        1.071104884147644,
        0.30004891753196716,
        0.6600466370582581
      ],
      "min": [
        -1.071486473083496,
        -0.3253355324268341,
        -0.352143257856369
      ],
      "type": "VEC3"
    },
    {
      "bufferView": 1,
      "byteOffset": 382428,
      "componentType": 5126,
      "count": 31869,
      "max": [
        1.0,
        0.9999969005584717,
        0.9998787641525269
      ],
      "min": [
        -0.9999908208847046,
        -0.9999902248382568,
        -0.9997692704200745
      ],
      "type": "VEC3"
    },
    {
      "bufferView": 2,
      "componentType": 5126,
      "count": 31869,
      "max": [
        0.18039216101169586,
        0.13333334028720856,
        0.0470588244497776,
        1.0
      ],
      "min": [
        0.0,
        0.0,
        0.0,
        1.0
      ],
      "type": "VEC4"
    },
    {
      "bufferView": 0,
      "componentType": 5125,
      "count": 191046,
      "type": "SCALAR"
    },
    {
      "bufferView": 1,
      "byteOffset": 764856,
      "componentType": 5126,
      "count": 1397,
      "max": [
        0.17137959599494934,
        -0.04524550959467888,
        0.21907010674476624
      ],
      "min": [
        -0.18090185523033142,
        -0.30517685413360596,
        -0.11039075255393982
      ],
      "type": "VEC3"
    },
    {
      "bufferView": 1,
      "byteOffset": 781620,
      "componentType": 5126,
      "count": 1397,
      "max": [
        0.9939205646514893,
        0.9989479780197144,
        0.9998816847801208
      ],
      "min": [
        -0.999571681022644,
        -0.9989056587219238,
        -0.9998104572296143
      ],
      "type": "VEC3"
    },
    {
      "bufferView": 2,
      "byteOffset": 509904,
      "componentType": 5126,
      "count": 1397,
      "max": [
        1.0,
        1.0,
        1.0,
        1.0
      ],
      "min": [
        0.9960784316062927,
        0.9960784316062927,
        0.9960784316062927,
        1.0
      ],
      "type": "VEC4"
    },
    {
      "bufferView": 0,
      "byteOffset": 764184,
      "componentType": 5125,
      "count": 8346,
      "type": "SCALAR"
    }
  ],
  "asset": {
    "extras": {
      "author": "smeerws (https://sketchfab.com/smeerws)",
      "license": "CC-BY-4.0 (http://creativecommons.org/licenses/by/4.0/)",
      "source": "https://sketchfab.com/3d-models/medium-bat-balloon-aab0d1db0e6a4224ae4675213aeff4aa",
      "title": "Medium | Bat-Balloon"
    },
    "generator": "Sketchfab-12.68.0",
    "version": "2.0"
  },
  "bufferViews": [
    {
      "buffer": 0,
      "byteLength": 797568,
      "name": "floatBufferViews",
      "target": 34963
    },
    {
      "buffer": 0,
      "byteLength": 798384,
      "byteOffset": 797568,
      "byteStride": 12,
      "name": "floatBufferViews",
      "target": 34962
    },
    {
      "buffer": 0,
      "byteLength": 532256,
      "byteOffset": 1595952,
      "byteStride": 16,
      "name": "floatBufferViews",
      "target": 34962
    }
  ],
  "buffers": [
    {
      "byteLength": 2128208,
      "uri": "scene.bin"
    }
  ],
  "materials": [
    {
      "doubleSided": true,
      "name": "Scene_-_Root",
      "pbrMetallicRoughness": {
        "metallicFactor": 0.1893125057,
        "roughnessFactor": 0.14193749430000002
      }
    }
  ],
  "meshes": [
    {
      "name": "Layer_1__0",
      "primitives": [
        {
          "attributes": {
            "COLOR_0": 2,
            "NORMAL": 1,
            "POSITION": 0
          },
          "indices": 3,
          "material": 0,
          "mode": 4
        }
      ]
    },
    {
      "name": "Layer_2__0",
      "primitives": [
        {
          "attributes": {
            "COLOR_0": 6,
            "NORMAL": 5,
            "POSITION": 4
          },
          "indices": 7,
          "material": 0,
          "mode": 4
        }
      ]
    }
  ],
  "nodes": [
    {
      "children": [
        1
      ],
      "matrix": [
        0.631075382232666,
        0.0,
        0.0,
        0.0,
        0.0,
        -0.5851564655533821,
        0.2363219552059944,
        0.0,
        0.0,
        -0.2363219552059944,
        -0.5851564655533821,
        0.0,
        -0.05707479640841484,
        -0.21679550409317014,
        -0.12237320095300679,
        1.0
      ],
      "name": "Sketchfab_model"
    },
    {
      "children": [
        2
      ],
      "matrix": [
        1.0,
        0.0,
        0.0,
        0.0,
        0.0,
        -1.0,
        0.0,
        0.0,
        0.0,
        0.0,
        -1.0,
        0.0,
        0.0,
        0.0,
        0.0,
        1.0
      ],
      "name": "6aa5ccecd4de4208b000dbbf3a1bb805.fbx"
    },
    {
      "children": [
        3,
        5
      ],
      "name": "RootNode"
    },
    {
      "children": [
        4
      ],
      "name": "Layer_1"
    },
    {
      "mesh": 0,
      "name": "Layer_1__0"
    },
    {
      "children": [
        6
      ],
      "name": "Layer_2"
    },
    {
      "mesh": 1,
      "name": "Layer_2__0"
    }
  ],
  "scene": 0,
  "scenes": [
    {
      "name": "Sketchfab_Scene",
      "nodes": [
        0
      ]
    }
  ]
}
